HIERARCHY
ROOT Hips
{
	OFFSET 0.000000 0.000000 0.000000
	CHANNELS 6 Xposition Yposition Zposition Xrotation Yrotation Zrotation
	JOINT LeftUpLeg_virtual
	{
		OFFSET 0.000000 0.000000 0.000000
		CHANNELS 3 Xrotation Yrotation Zrotation
		JOINT LeftUpLeg
		{
			OFFSET 11.394100 -6.187798 -0.413800
			CHANNELS 3 Xrotation Yrotation Zrotation
			JOINT LeftLeg
			{
				OFFSET 0.430247 -32.302673 3.732800
				CHANNELS 3 Xrotation Yrotation Zrotation
				JOINT LeftFoot
				{
					OFFSET -0.430247 -48.264931 -6.423300
					CHANNELS 3 Xrotation Yrotation Zrotation
					JOINT LeftToeBase
					{
						OFFSET 4.230900 -16.068199 23.438400
						CHANNELS 3 Xrotation Yrotation Zrotation
						JOINT LeftToe_End
						{
							OFFSET 4.510700 0.695400 19.974600
							CHANNELS 3 Xrotation Yrotation Zrotation
							End Site
							{
								OFFSET 0 0 0
							}
						}
					}
				}
			}
		}
	}
	JOINT RightUpLeg_virtual
	{
		OFFSET 0.000000 0.000000 0.000000
		CHANNELS 3 Xrotation Yrotation Zrotation
		JOINT RightUpLeg
		{
			OFFSET -11.333700 -6.187798 -0.413800
			CHANNELS 3 Xrotation Yrotation Zrotation
			JOINT RightLeg
			{
				OFFSET -0.430392 -32.302628 3.733000
				CHANNELS 3 Xrotation Yrotation Zrotation
				JOINT RightFoot
				{
					OFFSET 0.430392 -48.264973 -6.423500
					CHANNELS 3 Xrotation Yrotation Zrotation
					JOINT RightToeBase
					{
						OFFSET -4.230900 -16.068199 23.438400
						CHANNELS 3 Xrotation Yrotation Zrotation
						JOINT RightToe_End
						{
							OFFSET -4.510700 0.695400 19.974600
							CHANNELS 3 Xrotation Yrotation Zrotation
							End Site
							{
								OFFSET 0 0 0
							}
						}
					}
				}
			}
		}
	}
	JOINT Spine_virtual
	{
		OFFSET 0.000000 0.000000 0.000000
		CHANNELS 3 Xrotation Yrotation Zrotation
		JOINT Spine
		{
			OFFSET -0.002400 12.777504 0.315300
			CHANNELS 3 Xrotation Yrotation Zrotation
			JOINT Spine1
			{
				OFFSET -0.002067 5.816869 0.032633
				CHANNELS 3 Xrotation Yrotation Zrotation
				JOINT Spine1_split
				{
					OFFSET -0.002067 5.816869 0.032633
					CHANNELS 3 Xrotation Yrotation Zrotation
					JOINT Spine2
					{
						OFFSET -0.002067 5.816869 0.032633
						CHANNELS 3 Xrotation Yrotation Zrotation
						JOINT Neck_virtual
						{
							OFFSET 0.000000 0.000000 0.000000
							CHANNELS 3 Xrotation Yrotation Zrotation
							JOINT Neck
							{
								OFFSET -0.003700 21.199493 -0.826900
								CHANNELS 3 Xrotation Yrotation Zrotation
								JOINT Head
								{
									OFFSET 0.000000 20.442200 4.834800
									CHANNELS 3 Xrotation Yrotation Zrotation
									JOINT HeadTop_End
									{
										OFFSET 0.000000 34.668396 4.968400
										CHANNELS 3 Xrotation Yrotation Zrotation
										End Site
										{
											OFFSET 0 0 0
										}
									}
								}
							}
						}
						JOINT LeftShoulder_virtual
						{
							OFFSET 0.000000 0.000000 0.000000
							CHANNELS 3 Xrotation Yrotation Zrotation
							JOINT LeftShoulder
							{
								OFFSET 3.288150 8.794197 -1.372250
								CHANNELS 3 Xrotation Yrotation Zrotation
								JOINT LeftShoulder_split
								{
									OFFSET 3.288150 8.794197 -1.372250
									CHANNELS 3 Xrotation Yrotation Zrotation
									JOINT LeftArm
									{
										OFFSET 11.953299 -2.279007 -0.146200
										CHANNELS 3 Xrotation Yrotation Zrotation
										JOINT LeftForeArm
										{
											OFFSET 18.448900 0.000000 0.000000
											CHANNELS 3 Xrotation Yrotation Zrotation
											JOINT LeftHand
											{
												OFFSET 29.527798 0.000000 0.000000
												CHANNELS 3 Xrotation Yrotation Zrotation
												End Site
												{
													OFFSET 0 0 0
												}
											}
										}
									}
								}
							}
						}
						JOINT RightShoulder_virtual
						{
							OFFSET 0.000000 0.000000 0.000000
							CHANNELS 3 Xrotation Yrotation Zrotation
							JOINT RightShoulder
							{
								OFFSET -3.249400 8.794197 -1.372250
								CHANNELS 3 Xrotation Yrotation Zrotation
								JOINT RightShoulder_split
								{
									OFFSET -3.249400 8.794197 -1.372250
									CHANNELS 3 Xrotation Yrotation Zrotation
									JOINT RightArm
									{
										OFFSET -11.953299 -2.279007 -0.146200
										CHANNELS 3 Xrotation Yrotation Zrotation
										JOINT RightForeArm
										{
											OFFSET -18.448900 0.000000 0.000000
											CHANNELS 3 Xrotation Yrotation Zrotation
											JOINT RightHand
											{
												OFFSET -29.527802 0.000000 0.000000
												CHANNELS 3 Xrotation Yrotation Zrotation
												End Site
												{
													OFFSET 0 0 0
												}
											}
										}
									}
								}
							}
						}
					}
				}
			}
		}
	}
}
MOTION
Frames: 4
Frame Time: 0.03333333
4.106026 106.534492 -11.846096 0.000000 0.000000 0.000000 -0.676462 8.897802 -2.209002 -18.017464 19.254821 12.897696 10.987810 3.692023 4.292756 6.160678 0.508989 -15.435229 -2.578478 -4.030849 0.819387 0.000000 0.000000 0.000000 -0.178053 8.861989 -2.339161 1.828016 -8.800496 1.558110 -3.487614 -3.704878 -1.934046 -1.843606 -6.592720 9.512018 -2.483590 -0.200176 -11.492626 0.000000 0.000000 0.000000 -0.732170 11.266809 -2.544084 2.823690 -0.608079 4.072076 -0.338712 0.615713 1.916836 0.130802 -0.069063 -0.048705 0.000000 0.000000 0.000000 0.281559 3.250814 1.632748 12.637575 2.660436 1.762216 -9.693775 -18.898705 -14.219736 0.000000 0.000000 0.000000 -0.546076 1.480626 0.995239 -1.386052 -17.468694 -14.889821 -0.550779 -0.152107 -3.774006 13.900260 -22.427341 -64.943167 -0.058079 -6.139986 1.926988 0.000000 0.000000 0.000000 0.594991 2.093183 1.740386 0.127737 9.254484 14.983666 -1.930656 0.673794 1.027833 12.166734 26.997699 58.356966 -6.489336 2.715722 1.781928 0.000000 0.000000 0.000000 
4.123019 106.530136 -11.804001 0.000000 0.000000 0.000000 -0.718310 8.752130 -2.226680 -17.937892 19.224396 12.885376 11.065598 3.720559 4.282358 6.124990 0.626563 -15.414135 -2.584174 -4.042345 0.819625 0.000000 0.000000 0.000000 -0.198180 8.800348 -2.346812 1.882344 -8.747095 1.572966 -3.530126 -3.664911 -1.947014 -1.769834 -6.715992 9.488083 -2.267822 -0.239164 -11.348755 0.000000 0.000000 0.000000 -0.808644 11.155465 -2.567473 2.867815 -0.626496 4.063479 -0.333170 0.606570 1.926362 0.134385 -0.071592 -0.052162 0.000000 0.000000 0.000000 0.272716 3.249442 1.642476 12.625309 2.666439 1.779038 -9.666371 -18.891366 -14.153328 0.000000 0.000000 0.000000 -0.536770 1.471261 1.006924 -1.384396 -17.507209 -14.905575 -0.591271 -0.201776 -3.744431 13.855680 -22.416128 -64.946875 -0.097096 -6.226048 1.903451 0.000000 0.000000 0.000000 0.585885 2.080376 1.747469 0.117599 9.173704 14.975099 -1.932851 0.686323 1.083894 12.299438 26.969729 58.242068 -6.474849 2.649591 1.806565 0.000000 0.000000 0.000000 
4.133495 106.507133 -11.769108 0.000000 0.000000 0.000000 -0.805017 8.486181 -2.257487 -17.785411 19.227307 12.910345 11.205495 3.779448 4.279663 6.001106 0.846370 -15.427130 -2.631063 -4.054326 0.798768 0.000000 0.000000 0.000000 -0.269439 8.612361 -2.365822 1.871035 -8.645126 1.586912 -3.474715 -3.514743 -1.954856 -1.675684 -6.895694 9.544286 -1.992569 -0.260276 -11.504527 0.000000 0.000000 0.000000 -0.917826 10.961415 -2.607085 2.938323 -0.637813 4.059722 -0.325274 0.584264 1.942327 0.136708 -0.068548 -0.059415 0.000000 0.000000 0.000000 0.265338 3.235451 1.651035 12.615374 2.688763 1.819159 -9.690140 -18.846661 -14.036350 0.000000 0.000000 0.000000 -0.524642 1.446849 1.026192 -1.380729 -17.526185 -14.885564 -0.621243 -0.239018 -3.765146 13.788799 -22.358592 -64.952886 -0.052979 -6.260891 1.931074 0.000000 0.000000 0.000000 0.572791 2.051964 1.757368 0.128116 9.127189 14.965265 -2.002436 0.750852 1.174769 12.603468 26.965481 58.008394 -6.444745 2.601391 1.815757 0.000000 0.000000 0.000000 
4.123291 106.472397 -11.737576 0.000000 0.000000 0.000000 -0.937256 8.129405 -2.294664 -17.586112 19.255811 12.956427 11.385270 3.861518 4.279534 5.813628 1.147216 -15.468942 -2.701930 -4.065902 0.769118 0.000000 0.000000 0.000000 -0.378925 8.323858 -2.390293 1.820026 -8.503665 1.607612 -3.354132 -3.262777 -1.963689 -1.608340 -7.113574 9.646250 -1.636719 -0.265486 -11.938307 0.000000 0.000000 0.000000 -1.057849 10.720966 -2.655077 3.029484 -0.637209 4.059514 -0.317183 0.552650 1.961056 0.136610 -0.058173 -0.061969 0.000000 0.000000 0.000000 0.260561 3.210129 1.655796 12.601201 2.722928 1.890459 -9.763757 -18.779916 -13.856068 0.000000 0.000000 0.000000 -0.511244 1.410634 1.048082 -1.378316 -17.529645 -14.831355 -0.667808 -0.242243 -3.826192 13.723730 -22.222647 -64.968766 0.056534 -6.237445 2.001011 0.000000 0.000000 0.000000 0.557350 2.010935 1.768342 0.155086 9.128077 14.944480 -2.084115 0.853210 1.276745 13.058706 27.049238 57.675142 -6.390511 2.568789 1.796224 0.000000 0.000000 0.000000 
